<svg width="17" height="27" viewBox="0 0 17 27" fill="none" xmlns="http://www.w3.org/2000/svg">
<path d="M2.35496 25.036C2.16584 25.036 1.92944 24.9587 1.7876 24.8428C1.45665 24.5722 1.45665 24.1471 1.74033 23.8766L13.6548 13.5191C13.8912 13.3259 13.8912 12.9781 13.6548 12.7462L1.74033 2.38874C1.40937 2.11821 1.45665 1.69309 1.7876 1.42256C2.11856 1.15203 2.63864 1.19068 2.9696 1.46121L14.8841 11.8187C15.6878 12.553 15.6878 13.7124 14.8841 14.408L2.9696 24.8041C2.78048 24.9587 2.59136 25.036 2.35496 25.036Z" fill="white"/>
<path fill-rule="evenodd" clip-rule="evenodd" d="M0.614249 23.0501L12.0226 13.1327L0.650537 3.24673C-0.356548 2.40504 -0.0837771 1.20327 0.717772 0.548072C1.74836 -0.294352 3.2326 -0.0727713 4.0394 0.586719L4.07231 0.613626L16.0119 10.9938C17.3145 12.1838 17.3528 14.0704 15.9863 15.2552C15.9855 15.2559 15.987 15.2545 15.9863 15.2552L4.03997 25.6791C3.64401 26.0027 3.08964 26.2727 2.35494 26.2727C1.76915 26.2727 1.14657 26.0678 0.717772 25.7173C-0.192724 24.973 -0.187479 23.8147 0.591593 23.0718L0.614249 23.0501ZM14.8841 14.408C15.6878 13.7124 15.6878 12.553 14.8841 11.8187L2.9696 1.46121C2.63864 1.19068 2.11856 1.15203 1.7876 1.42256C1.45665 1.69309 1.40937 2.11821 1.74033 2.38874L13.6548 12.7462C13.8912 12.9781 13.8912 13.3259 13.6548 13.5191L1.74033 23.8766C1.45665 24.1471 1.45665 24.5722 1.7876 24.8428C1.92944 24.9587 2.16584 25.036 2.35496 25.036C2.59136 25.036 2.78048 24.9587 2.9696 24.8041L14.8841 14.408Z" fill="white"/>
</svg>
