<svg width="400" height="400" fill="none" xmlns="http://www.w3.org/2000/svg"><path fill-rule="evenodd" clip-rule="evenodd" d="M100.4 13.562 142.08 85.8a7.113 7.113 0 0 1-.001 7.11 7.124 7.124 0 0 1-6.155 3.562l-83.404.006A7.118 7.118 0 0 1 46.364 85.8l41.688-72.238a7.134 7.134 0 0 1 12.348 0Zm-6.18 64.491a2.64 2.64 0 1 0 0-5.28 2.64 2.64 0 0 0 0 5.28Z" fill="#80CAEE"/><path d="M318.462 77.056c-15.046-2.85-29.4 6-32 19.758a23.814 23.814 0 0 0 1.788 14.248l-6.498 10.64 12.312-2.508a29.362 29.362 0 0 0 14.97 7.676c15.046 2.85 29.4-6 32-19.758 2.62-13.756-7.486-27.206-22.572-30.056ZM129.35 168.78a2.508 2.508 0 1 0 0-5.016 2.508 2.508 0 0 0 0 5.016ZM151.922 187.932a2.51 2.51 0 0 1-2.997 2.46 2.513 2.513 0 0 1-1.971-1.971 2.514 2.514 0 0 1 1.067-2.574 2.503 2.503 0 0 1 1.393-.423 2.527 2.527 0 0 1 2.508 2.508ZM175.367 169.692a2.51 2.51 0 0 1-2.997 2.46 2.511 2.511 0 0 1-1.828-3.42 2.51 2.51 0 0 1 2.317-1.548 2.527 2.527 0 0 1 2.508 2.508ZM201.129 191.122a2.507 2.507 0 1 1-2.508-2.506 2.531 2.531 0 0 1 2.508 2.506ZM223.014 169.692a2.51 2.51 0 0 1-4.282 1.773 2.517 2.517 0 0 1-.544-2.733 2.51 2.51 0 0 1 2.318-1.548 2.534 2.534 0 0 1 1.768.741c.468.469.734 1.104.74 1.767ZM250.373 171.136a2.51 2.51 0 0 1-4.282 1.773c-.35-.35-.59-.797-.686-1.284a2.51 2.51 0 0 1 2.46-2.997 2.534 2.534 0 0 1 1.768.741c.468.469.734 1.104.74 1.767ZM278.149 169.692a2.508 2.508 0 1 0 0-5.015 2.508 2.508 0 0 0 0 5.015ZM267.242 194.2a2.51 2.51 0 0 1-4.282 1.773 2.517 2.517 0 0 1-.544-2.733 2.51 2.51 0 0 1 2.318-1.548 2.49 2.49 0 0 1 1.782.727 2.483 2.483 0 0 1 .726 1.781Z" fill="#80CAEE"/><path d="M91.432 157.648v12.31c1.748-.722 3.6-1.482 5.548-2.28v-6.288a17.886 17.886 0 0 1-5.548-3.742ZM91.432 184.436v205.526h5.548V180.978c-1.748 1.102-3.762 2.394-5.548 3.458ZM206.942 142.22l-3.038 4.332.076-3.686 2.962-.646ZM283.697 154.6l.912-.57c.2-.104 8.07-2.84 8.2-2.888-5.162-2.576-9.682-1.436-9.112 3.458ZM300.188 165.816l-5.2 1.824c3.496 1.444 7 1.248 7.944-1.678l-2.744-.146ZM190.033 384.3a55.778 55.778 0 0 0-2.888-13 45.134 45.134 0 0 1-24.812 0c-10.752 3.116-23.026 12.652-29.448 18.656 21.582 0 35.87-.19 52.284-.228a4.844 4.844 0 0 0 1.997-.424 4.895 4.895 0 0 0 2.665-2.972 4.907 4.907 0 0 0 .202-2.032ZM310.485 351.85l-7.068-3.8c-2.812 9.234-6.156 11.97-14.858 17.67 4.37 6.536 3.344 9.766 2.85 11.664-4.6 4.332-6.914 4.314-10.106 12.6h16a11.292 11.292 0 0 0 10.374-6.29c2.4-5.2 4.4-15.73 6.648-21.924a7.945 7.945 0 0 0-3.84-9.92ZM315.385 110.834a1.316 1.316 0 0 1-1.368 1.254 1.31 1.31 0 0 1-1.132-1.865 1.311 1.311 0 0 1 2.5.611ZM91.469 156.774V96.478l5.548-.006v60.644c-3.382-.608-5.016-.646-5.548-.342Z" fill="#3C50E0"/><path d="M244.104 115.4a5.208 5.208 0 0 0 2.902-2.127 5.21 5.21 0 0 0-4.118-8.093 5.225 5.225 0 0 0-1.418-8.673 5.225 5.225 0 0 0-3.408-.257 5.221 5.221 0 0 0 .376-3.34 5.23 5.23 0 0 0-4.856-4.115 5.238 5.238 0 0 0-3.232.919 5.23 5.23 0 0 0-7.062-5.468 5.228 5.228 0 0 0-2.666 2.268 5.429 5.429 0 0 0-1.862-3.18 5.428 5.428 0 0 0-6.932-.025 5.433 5.433 0 0 0-1.884 3.167 5.234 5.234 0 0 0-6.144-2.4 5.245 5.245 0 0 0-2.788 2.117 5.245 5.245 0 0 0-.832 3.399 5.24 5.24 0 0 0-6.363.253 5.246 5.246 0 0 0-1.427 6.207 5.246 5.246 0 0 0-4.94 8.892 5.223 5.223 0 0 0-1.33 10.22 5.218 5.218 0 0 0-2.065 8.841 5.22 5.22 0 0 0 3.319 1.381 5.23 5.23 0 0 0 1.498 8.655 5.23 5.23 0 0 0 3.404.237 5.2 5.2 0 0 0 5.092 7.4c-2.318-1.862-3.154-6 .646-14.78 6.764-15.616 12.956-4.712 12.88 1.634.114 1.14.76 1.368 2.47-.038 3.572-2.964 6.688 3.268-.114 6.838-1.292.686-2.166 2.2-1.064 10.6.068.601.168 1.197.304 1.786a5.306 5.306 0 0 0 4.792.018 5.296 5.296 0 0 0 2.846-3.856 5.242 5.242 0 0 0 6.132 2.451 5.25 5.25 0 0 0 2.808-2.095c.666-1 .97-2.199.86-3.396a5.23 5.23 0 0 0 7.826-6.382 5.245 5.245 0 0 0 5.932-2.491 5.226 5.226 0 0 0 .614-3.345 5.234 5.234 0 0 0-1.568-3.018 5.231 5.231 0 0 0 1.372-10.204Z" fill="#3C50E0"/><path d="M151.924 187.932h1v-.008l-1 .008Zm-2.998 2.46.196-.981h-.001l-.195.981Zm-1.284-.686-.707.707.707-.707Zm-.686-1.285-.981.196.981-.196Zm.143-1.449.923.383h.001l-.924-.383Zm.923-1.125-.555-.832.555.832Zm1.394-.423.008-1h-.008v1Zm1.767.74-.707.708.707-.708Zm24.184-16.472h1v-.008l-1 .008Zm-1.548 2.317-.382-.924.382.924Zm-1.449.143.195-.981-.195.981Zm-1.97-1.971-.981.195v.001l.981-.196Zm.142-1.449-.923-.382h-.001l.924.382Zm.924-1.125.556.831-.556-.831Zm1.393-.423.009-1h-.009v1Zm1.768.741.707-.707-.707.707Zm26.502 23.197h1v-.009l-1 .009Zm-.422 1.394-.831-.556-.002.003.833.553Zm-1.124.925-.383-.924h-.001l.384.924Zm-1.449.143-.195.981.195-.981Zm-1.972-1.97-.981.195v.001l.981-.196Zm1.066-2.575.556.832v-.001l-.556-.831Zm1.394-.423.008-1h-.008v1Zm1.765.74-.707.707.001.002.706-.709Zm22.628-19.664h1v-.009l-1 .009Zm-.422 1.393.831.557.002-.003-.833-.554Zm-2.576 1.067-.195.981h.001l.194-.981Zm-1.284-.687-.707.707.002.002.705-.709Zm-.686-1.284-.981.194.001.004.98-.198Zm.142-1.449-.923-.383-.002.004.925.379Zm.924-1.125-.554-.833-.002.002.556.831Zm1.394-.423.009-1h-.009v1Zm1.768.741.708-.706-.001-.002-.707.708Zm28.098 3.211h1v-.009l-1 .009Zm-.422 1.393.831.557.002-.003-.833-.554Zm-2.576 1.067-.195.981h.001l.194-.981Zm-1.284-.687-.707.707.002.002.705-.709Zm-.686-1.284-.981.194.981-.194Zm.142-1.449-.923-.383-.002.004.925.379Zm.924-1.125-.554-.833-.002.002.556.831Zm1.394-.423.009-1h-.009v1Zm1.768.741.708-.706-.001-.002-.707.708Zm17.61 24.831-1-.012v.012h1Zm-.422 1.393.831.557.002-.003-.833-.554Zm-1.126.924.383.924h.001l-.384-.924Zm-1.45.143-.195.981h.001l.194-.981Zm-1.284-.687-.707.707.002.002.705-.709Zm-.686-1.284-.981.194.001.004.98-.198Zm.142-1.449-.923-.383-.002.004.925.379Zm.924-1.125-.554-.833-.001.001.555.832Zm1.394-.423v1h.011l-.011-1Zm1.782.727.71-.705-.003-.003-.707.708Zm.542.817-.926.376.002.005.924-.381Zm48.326-82.402-.999-.046.999.046Zm-1.368 1.254.044-.999h-.001l-.043.999Zm-.91-.424.739-.674-.003-.003-.736.677Zm-.344-.944-.999-.046.999.046Zm.122-.497.904.428.005-.01-.909-.418Zm.302-.413-.672-.74-.006.005.678.735Zm.944-.344.045-.999h-.002l-.043.999Zm1.176.862.942-.337-.942.337ZM90.431 156.774a1 1 0 0 0 2 0h-2Zm2-60.302a1 1 0 1 0-2 0h2Zm-2 73.486a1 1 0 0 0 2 0h-2Zm2-12.272a1 1 0 0 0-2 0h2Zm-2 232.314a1 1 0 0 0 2 0h-2Zm2-205.45a1 1 0 0 0-2 0h2Zm5.586-3.42a1 1 0 0 0-2 0h2Zm-2 208.87a1 1 0 0 0 2 0h-2Zm2-228.59a1 1 0 0 0-2 0h2Zm-2 6.306a1 1 0 0 0 2 0h-2Zm2-71.244a1 1 0 1 0-2 0h2Zm-2 60.644a1 1 0 0 0 2 0h-2Zm203.68 13.237a1 1 0 0 0-1.831.806l1.831-.806Zm2.366 68.723-.949-.314.949.314Zm-43.824 52.055a1 1 0 0 0 .989 1.738l-.989-1.738Zm-128.638-132.22a.999.999 0 1 0 1.704 1.046l-1.704-1.046Zm33.037-31.344-.514-.858.514.858Zm20.11-8.035a1.001 1.001 0 0 0-.613-1.904l.613 1.904Zm102.722 31.112a1 1 0 0 0 1.567-1.244l-1.567 1.244Zm-35.005-28.383-.407.913.407-.913Zm-2.399-2.113a1 1 0 1 0-.757 1.851l.757-1.851ZM174.449 297.98a1 1 0 1 0 .773-1.844l-.773 1.844Zm-42.102-36.018-.833.554.833-.554Zm-15.946-52.752h-1 1Zm5.018-27.375a1 1 0 1 0-1.916-.574l1.916.574Zm106.439 122.244a1 1 0 0 0-.413-1.958l.413 1.958Zm-16.207.351.042-.999-.042-.001v1Zm-7.708-1.307a1 1 0 0 0-.159 1.994l.159-1.994Zm98.927-135.08a.999.999 0 1 0-1.414-1.414l1.414 1.414Zm-28.179 29.805-.77-.638-.001.001.771.637Zm-10.104 5.564-.125-.992h-.001l.126.992Zm-11.174-2.866-.588.809h.001l.587-.809Zm-24.183-19.159a1 1 0 1 0-1.182 1.614l1.182-1.614Zm-26.191-35.345a1 1 0 0 0 1.637 1.148l-1.637-1.148Zm3.902-3.822.819.574a1 1 0 0 0-1.126-1.525l.307.951Zm78.256 9.621a1 1 0 1 0-1.311-1.51l1.311 1.51Zm-23.008 23.703-.642.767a1 1 0 0 0 1.453-.182l-.811-.585Zm-31.954-23.786.52-.854-.52.854Zm-18.05-5.89-.991.131.991-.131Zm1.064-10.6.466.885h.001l-.467-.885Zm.114-6.84-.641-.767h-.001l.642.767Zm-2.446-.658.999-.054v-.001l-.999.055Zm-12.866-.938.918.397-.918-.397Zm6.924 15.939a1 1 0 0 0-1.995.138l1.995-.138Zm-4.53 7.809-.23.973h.001l.229-.973Zm-16.53 3-.613-.79.613.79Zm-28.384 18.048-.516.857a1 1 0 0 0 1.009.013l-.493-.87Zm-29.978-14.248.395-.919a1 1 0 0 0-1.136.248l.741.671Zm-9.152 22.382-.999-.041a.999.999 0 0 0 .606.96l.393-.919Zm32.488 15.844.442-.897-.002-.001-.44.898Zm8.471 1.779.043.999-.043-.999Zm8.285-2.501.517.856.002-.001-.519-.855Zm22.353-11.692a1 1 0 0 0-.933-1.768l.933 1.768Zm104.37-31.148a1 1 0 0 0 .895-1.788l-.895 1.788Zm-8.659.922-.988-.154v.001l.988.153Zm3.506 8.862.783-.622-.015-.018-.768.64Zm10.758 6.632.27-.963a1.538 1.538 0 0 0-.065-.016l-.205.979Zm5.887-2.141a1 1 0 0 0-1.869-.714l1.869.714Zm-117.693.002a1 1 0 1 0-1.995.13l1.995-.13Zm8.464 36.239-.902.432c.127.264.363.459.646.535l.256-.967Zm32.754-1.216.291.957a1 1 0 0 0 .704-1.062l-.995.105Zm4.317-25.588a1 1 0 1 0-1.869-.712l1.869.712Zm62.92-9.049a1 1 0 1 0 .719 1.866l-.719-1.866Zm16.927-4.043-.168-.985a.738.738 0 0 0-.046.008l.214.977Zm15.312-.76-.07.998h.011l.059-.998Zm.95-3.914-.323.946v.001l.323-.947Zm-20.67-3.496.14-.99-.14.99Zm-17.86-1.634.03-.999-.032-.001.002 1Zm-1.271-.92a1 1 0 1 0 .247 1.985l-.247-1.985Zm-4.845 1.814a1 1 0 1 0 1.065 1.692l-1.065-1.692Zm25.154-8.954.417.909h.001l-.418-.909Zm3.838 1.634.766.644v-.001l-.766-.643Zm-5.302 9.014a1 1 0 1 0 .573-1.916l-.573 1.916Zm-6.939 9.38a.999.999 0 1 0 .466 1.944l-.466-1.944Zm17.939 1.056.058-.998h-.001l-.057.998Zm11.666 1.6.093-.996-.093.996Zm-3.116-3.116.377-.926-.002-.001-.375.927Zm-6.269-3.496a1 1 0 0 0-.589 1.912l.589-1.912Zm-20.177 4.012a1 1 0 1 0-.007 2l.007-2Zm11.248 2.224.223-.975-.011-.002-.212.977Zm11.246 3.458.263-.965-.263.965Zm-2.546-3.61-.554.832.025.016.529-.848Zm-1.201-1.901a1 1 0 0 0-1.018 1.722l1.018-1.722Zm-202.115 12.314a1 1 0 1 0 .293-1.978l-.293 1.978Zm-18.396-2.091-.028-1-.048.003.076.997Zm-15.086 2.888.297.955-.297-.955Zm-1.862-3.6-.43-.903a1.07 1.07 0 0 0-.107.06l.537.843Zm36.25-14.058-.263-.965-.027.008.29.957Zm5.041 1.1a1 1 0 0 0 .635-1.896l-.635 1.896Zm-22.385 3.804a1 1 0 0 0 1.021 1.72l-1.021-1.72Zm-6.366-5.74-.593.805.593-.805Zm3.344-2.508.2-.98a3.607 3.607 0 0 0-.015-.003l-.185.983Zm22.2 4.034a1.001 1.001 0 0 0 .14-1.996l-.14 1.996Zm-28.933 16.109a1 1 0 0 0-1.05-1.702l1.05 1.702Zm-6.225 3.149.595.804.006-.004-.601-.8Zm-2.28 3.8-.323-.946.323.946Zm10.944-4.294.298.955-.298-.955Zm18.095-3.185a1.001 1.001 0 0 0 .21-1.99l-.21 1.99Zm-17.654 3.958a1 1 0 1 0-1.414-1.414l1.414 1.414Zm-2.151.737-.658-.753c-.02.017-.038.035-.056.053l.714.7Zm-1.634 4.104.489.872h.001l-.49-.872Zm10.108-6-.427-.904a.121.121 0 0 0-.017.008l.444.896Zm10.786-2.911a.999.999 0 1 0-.524-1.93l.524 1.93ZM190.033 384.3l-.995.099.001.012.994-.111Zm-2.888-13 .944-.332a1 1 0 0 0-1.219-.629l.275.961Zm-24.812 0 .275-.961a.99.99 0 0 0-.553.001l.278.96Zm-29.448 18.656-.683-.73a.998.998 0 0 0 .683 1.73v-1Zm52.284-.228.003-1h-.005l.002 1Zm1.997-.424-.407-.913-.002.001.409.912Zm1.65-1.202-.744-.668-.002.002.746.666Zm1.015-1.77.952.305-.952-.305Zm11.31-74.524a1 1 0 1 0-1.999.048l1.999-.048Zm-14.986 59.367a1 1 0 0 0 1.972.338l-1.972-.338Zm-24.803-.059a1 1 0 1 0 1.963.38l-1.963-.38Zm14.315-63.43a1 1 0 1 0-1.963-.38l1.963.38Zm41.687-42.506a1 1 0 0 0-1.905-.608l1.905.608Zm-15.885 46.432.174.985c.366-.065.666-.327.779-.681l-.953-.304Zm-28.612-5.092-.978-.205a1 1 0 0 0 .476 1.07l.502-.865Zm22.753-103.715a1.001 1.001 0 0 0-1.957-.41l1.957.41Zm114.913 149.083-.473.881.02.01.453-.891Zm-7.068-3.8.474-.881a1.001 1.001 0 0 0-1.43.59l.956.291Zm-14.896 17.668-.548-.836a1.002 1.002 0 0 0-.283 1.392l.831-.556Zm2.85 11.664.686.728a.996.996 0 0 0 .282-.476l-.968-.252Zm-10.106 12.56-.933-.36a1.001 1.001 0 0 0 .933 1.36v-1Zm16 0 .023-1h-.023v1Zm6.104-1.634.519.855-.519-.855Zm4.27-4.656.897.443.011-.024-.908-.419Zm6.648-21.924-.933-.358-.007.017.94.341Zm-.004-5.67.934-.359-.934.359Zm-26.457 10.342a1 1 0 0 0 1.467-1.36l-1.467 1.36Zm-44.319-50.718a1 1 0 0 0-1.467 1.36l1.467-1.36Zm19.812-15.71a1 1 0 1 0-1.271 1.544l1.271-1.544Zm16.73 18.67.808-.589-.017-.023-.791.612Zm22.598 30.037a.999.999 0 1 0 1.541-1.274l-1.541 1.274ZM207.909 228.6a1 1 0 0 0-1.935.508l1.935-.508Zm16.512 66.94-.967.254.967-.254Zm7.828 13.26.69-.724-.69.724Zm8.71 8.292-.689.724a1 1 0 0 0 .996.228l-.307-.952Zm22.446-17.374.845.535c.203-.32.207-.728.011-1.053l-.856.518Zm-7.864-13-.995.098a1 1 0 0 0 .14.42l.855-.518Zm-4.978-50.688-.995.096v.002l.995-.098Zm-22.91-35.656a1 1 0 0 0-.535 1.928l.535-1.928Zm-6.363-50.73a1 1 0 1 0-1.565-1.244l1.565 1.244Zm-15.867 26.09-.854.519a1 1 0 0 0 1.792-.17l-.938-.349Zm-9.037-26.269a1 1 0 1 0-1.926.538l1.926-.538ZM52.369 389a1 1 0 0 0 0 2v-2Zm302.23 2a1 1 0 1 0 0-2v2ZM318.463 77.056l-.186.983h.001l.185-.983Zm-32 19.758-.982-.185-.001.005.983.18Zm1.788 14.248.854.521c.173-.284.194-.636.055-.939l-.909.418Zm-6.498 10.64-.853-.521a1 1 0 0 0 1.053 1.501l-.2-.98Zm12.312-2.508.693-.722a1.003 1.003 0 0 0-.892-.258l.199.98Zm14.97 7.676.186-.982-.003-.001-.183.983Zm32-19.758-.982-.187v.002l.982.185Zm-27.979-2.074a1 1 0 1 0 1.999.044l-1.999-.044Zm3.811-5.754-.799-.601.799.601Zm-2.09-10.45.048-.999h-.003l-.045.999Zm-2.032.36.385.922-.385-.923Zm-3.858 5.18a1 1 0 0 0 1.98-.28l-1.98.28Zm-11.322 193.858a1 1 0 0 0 0 2v-2Zm8.208 2a1 1 0 1 0 0-2v2Zm14.552-2.038a1 1 0 0 0 0 2v-2Zm8.208 2a1 1 0 1 0 0-2v2Zm-14.484-16.466a1 1 0 1 0-2 0h2Zm-2 8.208a1 1 0 0 0 2 0h-2Zm2.038 14.554a1 1 0 1 0-2 0h2Zm-2 8.206a1 1 0 0 0 2 0h-2Zm-9.295-27.117a.999.999 0 1 0-1.409 1.418l1.409-1.418Zm4.405 7.194a.999.999 0 1 0 1.409-1.418l-1.409 1.418Zm11.743 8.879a1 1 0 1 0-1.409 1.42l1.409-1.42Zm4.405 7.194a1 1 0 1 0 1.409-1.42l-1.409 1.42Zm1.374-21.889a1 1 0 0 0-1.415-1.414l1.415 1.414Zm-7.229 4.4a1 1 0 0 0 1.415 1.414l-1.415-1.414Zm-8.844 11.712a1 1 0 1 0-1.414-1.414l1.414 1.414Zm-7.228 4.398a1 1 0 0 0 1.414 1.414l-1.414-1.414ZM52.521 96.472l-.002 1h.002v-1Zm-6.153-3.562-.866.5.866-.5Zm-.003-7.11-.866-.5v.001l.866.499ZM88.05 13.562l-.865-.5.865.5Zm2.61-2.607-.5-.867.5.867Zm7.128 0-.5.866.5-.866Zm2.61 2.607.866-.5-.866.5ZM142.081 85.8l-.866.5.866-.5Zm.954 3.557h-1 1Zm-7.11 7.121v1h.001l-.001-1Zm17.592-41.764.996-.09v-.002l-.996.092Zm-.45 2.168-.878-.48.878.48Zm-1.58 1.552-.463-.886.463.886Zm-4.213-.452.641-.767-.641.767Zm-1.214-1.852.959-.282-.959.282Zm1.265-4.044.627.778-.627-.778Zm2.052-.83-.086-.996h-.003l.089.996Zm2.784.875-.641.767.641-.767Zm-28.554 279.277a1 1 0 1 0-2 0h2Zm-2 15.352a1 1 0 0 0 2 0h-2Zm8.694-6.676a1 1 0 0 0 0-2v2Zm-15.388-2a1 1 0 0 0 0 2v-2Zm98.05-191.311a1 1 0 0 0-.947 1.762l.947-1.762Zm1.91 1.504.018-1-.018 1Zm2.404-.538.442.898.001-.001-.443-.897Zm1.89-1.578-.803-.595-.001.001.804.594Zm.96-2.269.874-.487a1 1 0 0 0-1.861.326l.987.161Zm2.632 2.312.372-.928-.372.928Zm6.306-1.956-.831-.556-.001.001.832.555Zm.862-3.396.584-.812a1 1 0 0 0-1.579.904l.995-.092Zm3.212.98.031 1-.031-1Zm3.144-1.174-.631-.776-.001.001.632.775Zm1.47-6.188.269-.963a1 1 0 0 0-1.181 1.372l.912-.409Zm2.406.094.193.982-.193-.982Zm3.7-2.871.903.431-.903-.431Zm.506-2.353-.999.017v.005l.999-.022Zm-.444-2.026-.916.401.916-.401Zm-1.19-1.698-.027-1a1.001 1.001 0 0 0-.662 1.724l.689-.724Zm5.054-5.282 1-.016v-.002l-1 .018Zm-1.048-3.064-.802.597.001.002.801-.599Zm-2.638-1.876-.282-.959a1 1 0 0 0-.019 1.912l.301-.953Zm2.748-1.913-.801-.598-.001.001.802.597Zm1.052-3.179 1-.002v-.011l-1 .013Zm-1.482-3.567.715-.7-.715.7Zm-3.534-1.561-.671-.741a1 1 0 0 0 .636 1.74l.035-.999Zm1.582-2.684-.973-.23v.002l.973.228Zm-.222-3.109-.931.364v.001l.931-.365Zm-1.948-2.432-.559.83h.001l.558-.83Zm-2.984-.895-.01-1h-.012l.022 1Zm-1.254.19-.905-.424a1.001 1.001 0 0 0 1.181 1.385l-.276-.961Zm.376-3.34-.977.213.001.001.976-.213Zm-1.73-2.88.647-.763-.647.763Zm-3.126-1.235-.049.999.049-.999Zm-3.232.919-.994-.11a1 1 0 0 0 1.562.933l-.568-.823Zm-3.566-5.549-.312.95.312-.95Zm-3.498.081.357.935-.357-.935Zm-2.664 2.268-.989.144a1 1 0 0 0 1.855.357l-.866-.501Zm-10.678-.038-.869.495a1 1 0 0 0 1.858-.343l-.989-.152Zm-2.648-2.288-.363.931.363-.931Zm-3.496-.111.304.953h.001l-.305-.953Zm-2.788 2.116-.835-.549-.001.001.836.548Zm-.832 3.399-.575.818a1 1 0 0 0 1.57-.918l-.995.1Zm-6.363.253-.639-.77.639.77Zm-1.764 2.862.975.224-.975-.224Zm.337 3.345-.262.965a1 1 0 0 0 1.173-1.379l-.911.414Zm-3.41.228-.388-.922.388.922Zm-2.544 2.283.875.485-.875-.485Zm1.014 6.381.031 1a1.002 1.002 0 0 0 .65-1.733l-.681.733Zm-5.015 4.544-.992-.129.992.129Zm.798 3.516-.839.545h.001l.838-.545Zm2.887 2.16.279.96a.998.998 0 0 0 .007-1.918l-.286.958Zm-3.725 5.645.993-.122-.993.122Zm1.647 3.205-.676.736.676-.736Zm3.332 1.372.678.735a1 1 0 0 0-.64-1.734l-.038.999Zm-1.616 3.005.987.161v-.001l-.987-.16Zm.582 3.362.876-.482-.876.482Zm2.532 2.288-.391.92.391-.92Zm3.404.237.904.428a1 1 0 0 0-1.163-1.394l.259.966Zm-.482 2.677.997-.086-.997.086Zm.936 2.554.816-.577-.816.577Zm2.097 1.733-.413.91.001.001.412-.911Zm2.789 1.431a1 1 0 0 0-.207-1.99l.207 1.99Zm56.936 167.08a1 1 0 0 0 1.532-1.286l-1.532 1.286Zm-8.386-13.104a.999.999 0 1 0-1.532 1.286l1.532-1.286Zm-56.56 14.893a1 1 0 0 0 1.928.532l-1.928-.532Zm5.994-14.212a1 1 0 1 0-1.928-.532l1.928.532Zm25.683-83.393a1 1 0 1 0-1.541 1.274l1.541-1.274Zm17.213 10.907a1 1 0 0 0-.023-2l.023 2ZM95.184 37.788a1 1 0 1 0-2 0h2Zm-2 25.572a1 1 0 1 0 2 0h-2Zm36.168 106.42a3.509 3.509 0 0 0 3.508-3.508h-2c0 .833-.675 1.508-1.508 1.508v2Zm3.508-3.508a3.509 3.509 0 0 0-3.508-3.508v2c.832 0 1.508.675 1.508 1.508h2Zm-3.508-3.508a3.508 3.508 0 0 0-3.508 3.508h2c0-.833.675-1.508 1.508-1.508v-2Zm-3.508 3.508a3.507 3.507 0 0 0 3.508 3.508v-2a1.508 1.508 0 0 1-1.508-1.508h-2Zm25.08 21.66c0 .299-.089.59-.254.838l1.662 1.111a3.505 3.505 0 0 0 .592-1.949h-2Zm-.254.838a1.511 1.511 0 0 1-.677.555l.765 1.848a3.5 3.5 0 0 0 1.574-1.292l-1.662-1.111Zm-.677.555a1.51 1.51 0 0 1-.871.086l-.391 1.962a3.507 3.507 0 0 0 2.027-.2l-.765-1.848Zm-.872.086a1.508 1.508 0 0 1-.772-.413l-1.414 1.415a3.52 3.52 0 0 0 1.797.96l.389-1.962Zm-.772-.413a1.499 1.499 0 0 1-.412-.772l-1.962.391c.135.68.469 1.305.96 1.796l1.414-1.415Zm-.412-.772a1.502 1.502 0 0 1 .085-.871l-1.847-.765a3.506 3.506 0 0 0-.2 2.027l1.962-.391Zm.086-.871c.114-.276.307-.511.555-.677l-1.111-1.663a3.508 3.508 0 0 0-1.292 1.575l1.848.765Zm.555-.677c.248-.166.54-.254.838-.254v-2c-.694 0-1.372.206-1.949.591l1.111 1.663Zm.829-.254c.402.003.786.164 1.069.448l1.414-1.415a3.528 3.528 0 0 0-2.466-1.033l-.017 2Zm1.069.448c.284.283.444.667.448 1.068l2-.016a3.532 3.532 0 0 0-1.034-2.467l-1.414 1.415Zm23.891-17.18c0 .299-.088.59-.254.838l1.663 1.111a3.504 3.504 0 0 0 .591-1.949h-2Zm-.254.838a1.503 1.503 0 0 1-.676.555l.765 1.848a3.5 3.5 0 0 0 1.574-1.292l-1.663-1.111Zm-.676.555a1.513 1.513 0 0 1-.872.086l-.39 1.962a3.507 3.507 0 0 0 2.027-.2l-.765-1.848Zm-.872.086a1.508 1.508 0 0 1-.772-.413l-1.414 1.415c.49.49 1.116.824 1.796.96l.39-1.962Zm-.772-.413a1.512 1.512 0 0 1-.413-.772l-1.961.391c.135.68.47 1.305.96 1.796l1.414-1.415Zm-.413-.771a1.512 1.512 0 0 1 .086-.872l-1.848-.765a3.513 3.513 0 0 0-.199 2.026l1.961-.389Zm.086-.872c.114-.276.308-.511.556-.677l-1.111-1.663a3.508 3.508 0 0 0-1.292 1.575l1.847.765Zm.556-.677c.248-.166.539-.254.837-.254v-2c-.694 0-1.372.206-1.948.591l1.111 1.663Zm.829-.254c.401.003.785.164 1.069.448l1.414-1.414a3.534 3.534 0 0 0-2.466-1.034l-.017 2Zm1.068.448c.284.284.445.668.448 1.068l2-.016a3.527 3.527 0 0 0-1.033-2.466l-1.415 1.414Zm26.21 22.49c0 .3-.088.591-.253.838l1.663 1.112c.387-.579.59-1.258.59-1.95h-2Zm-.255.841a1.5 1.5 0 0 1-.674.554l.766 1.847a3.49 3.49 0 0 0 1.575-1.295l-1.667-1.106Zm-.675.554a1.509 1.509 0 0 1-.871.086l-.389 1.962a3.508 3.508 0 0 0 2.027-.201l-.767-1.847Zm-.871.086a1.507 1.507 0 0 1-.772-.412l-1.414 1.415a3.51 3.51 0 0 0 1.797.959l.389-1.962Zm-.772-.412a1.508 1.508 0 0 1-.413-.772l-1.962.391c.136.68.47 1.305.961 1.796l1.414-1.415Zm-.413-.772a1.513 1.513 0 0 1 .085-.872l-1.848-.765a3.517 3.517 0 0 0-.199 2.027l1.962-.39Zm.085-.872c.114-.275.308-.511.556-.676l-1.111-1.664a3.517 3.517 0 0 0-1.293 1.575l1.848.765Zm.556-.677c.248-.166.54-.254.838-.254v-2c-.694 0-1.373.206-1.95.592l1.112 1.662Zm.829-.254c.401.003.784.164 1.067.447l1.415-1.413a3.527 3.527 0 0 0-2.465-1.034l-.017 2Zm1.068.449c.284.282.445.665.448 1.066l2-.018a3.522 3.522 0 0 0-1.036-2.465l-1.412 1.417Zm22.334-20.373c0 .297-.088.59-.255.84l1.666 1.107a3.52 3.52 0 0 0 .589-1.947h-2Zm-.253.837a1.507 1.507 0 0 1-.677.556l.765 1.848a3.505 3.505 0 0 0 1.574-1.291l-1.662-1.113Zm-.677.556a1.514 1.514 0 0 1-.873.086l-.389 1.962a3.507 3.507 0 0 0 2.027-.2l-.765-1.848Zm-.873.086a1.518 1.518 0 0 1-.773-.414l-1.411 1.417c.49.489 1.113.823 1.794.959l.39-1.962Zm-.771-.412c-.21-.21-.354-.48-.413-.775l-1.961.395c.137.677.468 1.302.959 1.793l1.415-1.413Zm-.412-.771a1.528 1.528 0 0 1 .086-.876l-1.851-.759a3.53 3.53 0 0 0-.198 2.022l1.963-.387Zm.084-.873c.114-.275.308-.511.556-.677l-1.112-1.662a3.515 3.515 0 0 0-1.291 1.573l1.847.766Zm.555-.676c.251-.167.542-.255.839-.255v-2c-.694 0-1.371.206-1.948.59l1.109 1.665Zm.831-.255a1.53 1.53 0 0 1 1.07.449l1.413-1.416a3.535 3.535 0 0 0-2.466-1.033l-.017 2Zm1.068.447c.284.284.445.668.448 1.07l2-.018a3.531 3.531 0 0 0-1.032-2.464l-1.416 1.412Zm27.806 2.505c0 .297-.088.59-.255.84l1.666 1.107a3.52 3.52 0 0 0 .589-1.947h-2Zm-.253.837a1.507 1.507 0 0 1-.677.556l.765 1.848a3.505 3.505 0 0 0 1.574-1.291l-1.662-1.113Zm-.677.556a1.514 1.514 0 0 1-.873.086l-.389 1.962a3.507 3.507 0 0 0 2.027-.2l-.765-1.848Zm-.872.086a1.513 1.513 0 0 1-.774-.414l-1.411 1.417c.49.489 1.113.823 1.794.959l.391-1.962Zm-.772-.412a1.508 1.508 0 0 1-.412-.771l-1.963.387c.135.683.471 1.308.96 1.797l1.415-1.413Zm-.412-.771a1.528 1.528 0 0 1 .086-.876l-1.851-.759a3.53 3.53 0 0 0-.198 2.022l1.963-.387Zm.084-.873c.114-.275.308-.511.556-.677l-1.112-1.662a3.515 3.515 0 0 0-1.291 1.573l1.847.766Zm.555-.676c.251-.167.542-.255.839-.255v-2c-.694 0-1.371.206-1.948.59l1.109 1.665Zm.831-.255a1.53 1.53 0 0 1 1.07.449l1.413-1.416a3.53 3.53 0 0 0-2.466-1.033l-.017 2Zm1.069.447c.283.284.444.668.447 1.07l2-.018a3.531 3.531 0 0 0-1.032-2.464l-1.415 1.412Zm29.223.617a3.507 3.507 0 0 0 3.508-3.508h-2c0 .833-.674 1.508-1.508 1.508v2Zm3.508-3.508a3.507 3.507 0 0 0-3.508-3.508v2c.834 0 1.508.675 1.508 1.508h2Zm-3.508-3.508a3.509 3.509 0 0 0-3.508 3.508h2a1.51 1.51 0 0 1 1.508-1.508v-2Zm-3.508 3.508a3.509 3.509 0 0 0 3.508 3.508v-2a1.508 1.508 0 0 1-1.508-1.508h-2Zm-8.398 27.016c0 .297-.088.59-.254.84l1.665 1.107a3.52 3.52 0 0 0 .589-1.947h-2Zm-.253.837a1.52 1.52 0 0 1-.678.557l.767 1.847a3.514 3.514 0 0 0 1.573-1.291l-1.662-1.113Zm-.677.556a1.514 1.514 0 0 1-.873.086l-.389 1.962a3.507 3.507 0 0 0 2.027-.2l-.765-1.848Zm-.872.086a1.513 1.513 0 0 1-.774-.414l-1.411 1.417c.49.489 1.113.823 1.794.959l.391-1.962Zm-.772-.412c-.21-.21-.354-.48-.413-.775l-1.961.395c.137.677.468 1.302.959 1.793l1.415-1.413Zm-.412-.771a1.528 1.528 0 0 1 .086-.876l-1.851-.759a3.53 3.53 0 0 0-.198 2.022l1.963-.387Zm.084-.873c.114-.275.308-.511.556-.677l-1.111-1.663a3.507 3.507 0 0 0-1.292 1.574l1.847.766Zm.555-.676c.251-.167.542-.255.839-.255v-2c-.694 0-1.371.206-1.948.59l1.109 1.665Zm.85-.255a1.48 1.48 0 0 1 .576.11l.755-1.852a3.482 3.482 0 0 0-1.352-.258l.021 2Zm.576.11c.183.074.349.185.489.325l1.413-1.416a3.495 3.495 0 0 0-1.147-.761l-.755 1.852Zm.486.321c.141.143.252.31.325.489l1.853-.752a3.486 3.486 0 0 0-.759-1.146l-1.419 1.409Zm.327.494c.074.18.111.374.108.571l2 .024a3.445 3.445 0 0 0-.259-1.357l-1.849.762Zm48.251-82.829a.314.314 0 0 1-.101.22l1.353 1.473c.452-.415.718-.991.746-1.601l-1.998-.092Zm-.101.22a.31.31 0 0 1-.224.081l-.087 1.998a2.312 2.312 0 0 0 1.664-.606l-1.353-1.473Zm-.225.081a.31.31 0 0 1-.214-.099l-1.478 1.348a2.31 2.31 0 0 0 1.606.749l.086-1.998Zm-.217-.102a.31.31 0 0 1-.081-.221l-1.998-.092a2.31 2.31 0 0 0 .607 1.667l1.472-1.354Zm-.081-.221a.314.314 0 0 1 .027-.115l-1.807-.856a2.303 2.303 0 0 0-.218.879l1.998.092Zm.032-.125a.316.316 0 0 1 .072-.097l-1.357-1.469a2.33 2.33 0 0 0-.532.729l1.817.837Zm.066-.091a.312.312 0 0 1 .108-.066l-.685-1.88a2.318 2.318 0 0 0-.768.466l1.345 1.48Zm.108-.066a.305.305 0 0 1 .12-.019l.086-1.998a2.316 2.316 0 0 0-.891.137l.685 1.88Zm.119-.019a.316.316 0 0 1 .12.029l.845-1.813a2.307 2.307 0 0 0-.876-.214l-.089 1.998Zm.12.029a.304.304 0 0 1 .096.071l1.477-1.349a2.316 2.316 0 0 0-.728-.535l-.845 1.813Zm.096.071a.319.319 0 0 1 .063.1l1.883-.674a2.316 2.316 0 0 0-.469-.775l-1.477 1.349Zm.063.1c.017.048.022.09.02.123l1.998.092a2.31 2.31 0 0 0-.135-.889l-1.883.674ZM92.431 156.774V96.472h-2v60.302h2Zm0 13.184v-12.272h-2v12.272h2Zm0 220.042V184.55h-2V390h2Zm3.586-208.87V390h2V181.13h-2Zm0-19.72v6.306h2v-6.306h-2Zm0-64.938v60.644h2V96.472h-2Zm201.849 74.687a94.298 94.298 0 0 1 3.248 67.603l1.899.628a96.303 96.303 0 0 0-3.316-69.037l-1.831.806Zm3.248 67.603a94.302 94.302 0 0 1-42.875 52.369l.989 1.738a96.3 96.3 0 0 0 43.785-53.479l-1.899-.628Zm-169.809-78.805a94.263 94.263 0 0 1 31.848-31.533l-1.029-1.715a96.245 96.245 0 0 0-32.523 32.202l1.704 1.046Zm31.847-31.533a94.228 94.228 0 0 1 19.596-8.892l-.613-1.904a96.196 96.196 0 0 0-20.011 9.081l1.028 1.715ZM287.037 149.4a96.256 96.256 0 0 0-36.164-28.052l-.815 1.826a94.25 94.25 0 0 1 35.412 27.47l1.567-1.244Zm-36.164-28.052a96.174 96.174 0 0 0-2.807-1.2l-.757 1.851c.922.377 1.838.768 2.749 1.175l.815-1.826Zm-75.651 174.788a94.283 94.283 0 0 1-42.043-34.728l-1.665 1.108a96.276 96.276 0 0 0 42.935 35.464l.773-1.844Zm-42.043-34.728a94.286 94.286 0 0 1-15.778-52.198h-2a96.281 96.281 0 0 0 16.113 53.306l1.665-1.108Zm-15.778-52.198a95.277 95.277 0 0 1 4.018-27.375l-1.916-.574a97.27 97.27 0 0 0-4.102 27.949h2Zm110.044 92.911a63.553 63.553 0 0 1-15.752 1.31l-.083 1.998a65.524 65.524 0 0 0 16.248-1.35l-.413-1.958Zm-15.794 1.309c-2.573 0-5.161-.103-7.708-.307l-.159 1.994c2.6.208 5.241.313 7.867.313v-2Zm89.805-136.801c-7.473 7.473-17.344 18.281-27.535 30.581l1.54 1.276c10.158-12.26 19.987-23.02 27.409-30.443l-1.414-1.414Zm-27.536 30.582a14.651 14.651 0 0 1-9.458 5.209l.251 1.984a16.653 16.653 0 0 0 10.75-5.919l-1.543-1.274Zm-9.459 5.209a14.659 14.659 0 0 1-10.46-2.683l-1.175 1.618a16.654 16.654 0 0 0 11.887 3.049l-.252-1.984Zm-10.459-2.683c-8.956-6.514-14.92-11.131-24.772-18.35l-1.182 1.614c9.753 7.145 15.873 11.876 24.777 18.354l1.177-1.618Zm-49.326-52.547 3.084-4.396-1.637-1.148-3.084 4.396 1.637 1.148Zm79.21 3.141a144.576 144.576 0 0 0-22.508 24.628l1.622 1.17a142.607 142.607 0 0 1 22.197-24.288l-1.311-1.51Zm-21.697 25.213.642-.767-.001-.001-.002-.002-.011-.009-.042-.034-.162-.136-.627-.519a479.446 479.446 0 0 0-10.287-8.248c-6.369-4.962-14.396-10.938-20.944-14.924l-1.04 1.708c6.444 3.922 14.395 9.839 20.755 14.793a479.773 479.773 0 0 1 10.242 8.212l.622.515.16.134.04.034.01.008.003.002v.001l.642-.767Zm-31.434-24.64c-3.478-2.118-6.359-2.87-8.765-2.935-2.4-.064-4.244.561-5.594 1.044-.701.251-1.182.43-1.585.511-.381.077-.497.022-.544-.006-.071-.044-.265-.213-.489-.846-.219-.621-.419-1.555-.601-2.935l-1.983.262c.188 1.423.409 2.52.698 3.338.285.807.684 1.488 1.326 1.883.667.412 1.383.387 1.988.265.583-.117 1.241-.366 1.865-.589 1.301-.466 2.854-.981 4.865-.927 2.005.054 4.55.678 7.779 2.643l1.04-1.708Zm-17.578-5.167c-.552-4.189-.59-6.545-.371-7.906.106-.666.266-1.033.408-1.246.132-.197.285-.318.501-.432l-.931-1.77c-.431.226-.871.55-1.233 1.091-.351.526-.584 1.192-.72 2.041-.268 1.669-.191 4.273.363 8.484l1.983-.262Zm.539-9.584c3.646-1.922 4.963-4.764 4.45-6.991-.252-1.091-.971-2.029-2.056-2.378-1.099-.355-2.312-.024-3.388.877l1.283 1.534c.704-.589 1.217-.596 1.492-.508.29.094.595.381.72.924.24 1.042-.28 3.11-3.434 4.772l.933 1.77Zm-.995-8.492c-.509.427-.842.645-1.046.741-.229.107-.081-.035.176.102a.477.477 0 0 1 .185.166c.01.017-.004-.001-.025-.086-.044-.178-.073-.454-.095-.868l-1.997.108c.022.415.057.858.149 1.236.084.34.278.908.841 1.208.592.316 1.202.138 1.616-.056.44-.207.931-.557 1.481-1.017l-1.285-1.534Zm-.805.054c-.095-1.728-.567-3.649-1.331-5.324-.753-1.652-1.854-3.203-3.3-4.011-.741-.414-1.578-.634-2.479-.554-.898.08-1.785.452-2.645 1.1-1.691 1.274-3.374 3.688-5.027 7.509l1.835.794c1.606-3.71 3.118-5.744 4.396-6.706.624-.47 1.165-.664 1.619-.705.45-.04.888.063 1.326.308.911.509 1.782 1.617 2.456 3.094.663 1.454 1.072 3.133 1.153 4.605l1.997-.11Zm-14.782-1.28c-2.326 5.369-3.011 9.202-2.561 11.925.228 1.382.749 2.485 1.497 3.335.745.847 1.673 1.396 2.643 1.739 1.912.676 4.076.583 5.684.359a19.766 19.766 0 0 0 2.621-.552c.071-.02.126-.037.165-.049l.046-.014.013-.004.005-.002h.001c.001 0 .001-.001-.307-.952l-.307-.952h.001-.001l-.006.002-.032.01-.133.04a17.837 17.837 0 0 1-2.343.492c-1.496.209-3.28.252-4.74-.264-.716-.253-1.331-.632-1.808-1.174-.473-.538-.852-1.284-1.026-2.34-.355-2.153.149-5.554 2.423-10.805l-1.835-.794Zm5.846 16.474c.109 1.571.027 3.555-.428 5.009-.229.731-.518 1.216-.819 1.478-.247.215-.552.33-1.058.211l-.459 1.946c1.107.262 2.078.007 2.831-.649.699-.609 1.134-1.496 1.413-2.389.561-1.792.632-4.059.515-5.744l-1.995.138Zm-2.305 6.698c-4.209-.995-7.33-1.191-10.044-.609-2.725.583-4.929 1.927-7.329 3.792l1.227 1.58c2.305-1.791 4.227-2.925 6.521-3.417 2.304-.493 5.095-.361 9.165.6l.46-1.946Zm-17.373 3.183c-4.631 3.6-11.683 8.086-17.608 11.688a466.868 466.868 0 0 1-10.442 6.158l-.16.091-.04.023-.01.006-.003.001v.001l.492.87.493.87h.001l.003-.002a7.663 7.663 0 0 0 .214-.122l.622-.356a474.513 474.513 0 0 0 9.869-5.831c5.927-3.603 13.067-8.141 17.796-11.817l-1.227-1.58Zm-27.255 17.981c-11.359-6.845-19.619-9.807-30.099-14.31l-.789 1.838c10.568 4.541 18.648 7.431 29.856 14.186l1.032-1.714Zm-31.235-14.062a36.513 36.513 0 0 0-9.41 23.012l1.999.082a34.513 34.513 0 0 1 8.894-21.752l-1.483-1.342Zm-8.804 23.972c14.976 6.412 20.623 10.045 32.442 15.823l.879-1.796c-11.661-5.702-17.511-9.433-32.534-15.865l-.787 1.838Zm32.44 15.822a18.472 18.472 0 0 0 8.955 1.881l-.086-1.998a16.489 16.489 0 0 1-7.986-1.677l-.883 1.794Zm8.955 1.881a18.474 18.474 0 0 0 8.759-2.644l-1.034-1.712a16.486 16.486 0 0 1-7.811 2.358l.086 1.998Zm8.761-2.645c7.373-4.469 14.299-8.571 21.834-12.547l-.933-1.768c-7.589 4.004-14.556 8.13-21.938 12.605l1.037 1.71Zm127.099-45.483c-2.378-1.19-4.746-1.693-6.677-1.338-.977.18-1.867.585-2.559 1.259-.698.678-1.141 1.574-1.306 2.635l1.977.308c.105-.681.37-1.166.723-1.509.358-.348.862-.604 1.527-.726 1.354-.248 3.268.083 5.42 1.159l.895-1.788Zm-10.542 2.557c-.274 1.766.195 3.606.928 5.246.738 1.653 1.786 3.196 2.798 4.409l1.536-1.28c-.924-1.109-1.861-2.497-2.508-3.945-.653-1.46-.969-2.89-.777-4.124l-1.977-.306Zm3.712 9.637a19.607 19.607 0 0 0 11.336 6.989l.409-1.958a17.606 17.606 0 0 1-10.18-6.275l-1.565 1.244Zm11.271 6.973a5.12 5.12 0 0 0 3.68-.359l-.901-1.786a3.112 3.112 0 0 1-2.24.219l-.539 1.926Zm3.68-.359a5.121 5.121 0 0 0 2.476-2.745l-1.869-.714a3.117 3.117 0 0 1-1.508 1.673l.901 1.786Zm-117.212-2.613a99.813 99.813 0 0 0 9.557 36.541l1.805-.864a97.805 97.805 0 0 1-9.367-35.807l-1.995.13Zm10.203 37.076c11.815 3.135 21.42 2.388 33.301-1.226l-.582-1.914c-11.602 3.53-20.822 4.227-32.206 1.206l-.513 1.934Zm34.005-2.288a55.357 55.357 0 0 1 3.322-25.483l-1.869-.712a57.355 57.355 0 0 0-3.442 26.405l1.989-.21Zm66.961-32.666a112.81 112.81 0 0 1 16.422-4.932l-.428-1.954a114.761 114.761 0 0 0-16.713 5.02l.719 1.866Zm16.377-4.923a63.05 63.05 0 0 1 15.073-.748l.141-1.995a65.012 65.012 0 0 0-15.551.772l.337 1.971Zm15.084-.748c1.91.113 3.468.093 4.608-.057.565-.075 1.077-.188 1.493-.36.378-.156.889-.449 1.106-1.017.248-.648-.03-1.223-.314-1.579-.284-.356-.701-.671-1.172-.958-.957-.583-2.421-1.215-4.388-1.887l-.647 1.893c1.922.656 3.224 1.232 3.994 1.702.393.239.58.41.65.498.07.087-.104-.088.01-.385.083-.217.22-.208-.004-.115-.187.078-.506.161-.99.225-.959.127-2.374.153-4.228.044l-.118 1.996Zm1.333-5.858c-.795-.272-2.316-.596-4.12-.931a240.8 240.8 0 0 0-6.242-1.054 659.544 659.544 0 0 0-10.492-1.555l-.279 1.98c1.614.227 6.061.856 10.46 1.55 2.199.347 4.381.71 6.187 1.045 1.834.341 3.207.641 3.839.857l.647-1.892Zm-20.854-3.54c-5.192-.729-12.862-1.49-17.97-1.643l-.06 1.999c5.013.15 12.607.902 17.751 1.624l.279-1.98Zm-18.002-1.644c-.424.001-.848.028-1.269.08l.247 1.985a8.366 8.366 0 0 1 1.027-.065l-.005-2Zm-5.049 3.586c-.049.031-.09.051-.094.053l-.026.012a.076.076 0 0 1-.012.005l.027-.011.149-.058.582-.221 2.108-.801a1097.46 1097.46 0 0 0 6.829-2.618c5.265-2.039 11.422-4.483 14.943-6.098l-.833-1.818c-3.457 1.586-9.558 4.008-14.832 6.051-2.632 1.02-5.05 1.942-6.817 2.613l-2.109.801-.589.225-.166.064a1.717 1.717 0 0 0-.093.039c-.007.003-.02.008-.034.016a.791.791 0 0 0-.098.054l1.065 1.692Zm24.507-9.737c2.013-.925 3.321-1.408 4.123-1.599.411-.098.601-.097.65-.09.023.003-.27-.046-.393-.383-.079-.215.008-.32-.057-.152-.05.128-.151.318-.32.574-.335.506-.826 1.11-1.349 1.732l1.532 1.286c.518-.617 1.079-1.301 1.485-1.915.202-.305.392-.633.517-.954.108-.28.251-.764.069-1.261-.228-.619-.783-.852-1.222-.91-.413-.055-.885.01-1.376.127-1.002.239-2.458.792-4.494 1.728l.835 1.817Zm2.655.082c-.318.377-.995.966-1.89 1.742-.853.741-1.849 1.606-2.671 2.462-.413.429-.799.874-1.11 1.316-.305.433-.577.92-.699 1.431-.128.536-.098 1.151.285 1.7.36.516.929.821 1.548 1.006l.573-1.916a1.69 1.69 0 0 1-.39-.162.484.484 0 0 1-.086-.063l.002.008c0-.003-.004-.035.014-.108.038-.16.151-.408.389-.746.231-.328.542-.692.916-1.08.748-.779 1.674-1.586 2.539-2.337.825-.714 1.664-1.435 2.111-1.966l-1.531-1.287Zm-11.01 20.981c2.151-.515 5.444-.56 8.797-.43 3.349.13 6.547.422 8.619.54l.114-1.996c-1.953-.112-5.308-.413-8.656-.543-3.344-.13-6.89-.102-9.34.485l.466 1.944Zm17.416.11c1.573.091 3.524.396 5.587.732 2.037.332 4.177.692 6.044.866l.185-1.992c-1.781-.166-3.841-.512-5.907-.848-2.041-.332-4.099-.657-5.794-.754l-.115 1.996Zm11.631 1.598c.424.039.974-.069 1.368-.484.211-.223.356-.517.385-.857a1.666 1.666 0 0 0-.19-.896c-.252-.496-.734-.948-1.375-1.375-.66-.441-1.582-.917-2.835-1.426l-.753 1.852c1.178.479 1.967.896 2.478 1.237.53.354.679.573.703.619.005.01-.032-.057-.021-.182a.59.59 0 0 1 .156-.348c.14-.147.263-.132.269-.132l-.185 1.992Zm-2.649-5.039c-1.79-.724-5.071-2.084-6.644-2.569l-.589 1.912c1.466.451 4.621 1.758 6.484 2.511l.749-1.854Zm-26.828 3.443c3.714.014 7.414.416 11.044 1.201l.423-1.954a55.12 55.12 0 0 0-11.46-1.247l-.007 2Zm11.033 1.199c1.446.33 3.406.959 5.451 1.632 2.018.664 4.113 1.369 5.755 1.816l.525-1.93c-1.577-.429-3.604-1.111-5.655-1.786-2.024-.666-4.077-1.328-5.631-1.682l-.445 1.95Zm11.206 3.448c.413.113.977.097 1.434-.252.244-.186.433-.454.516-.782a1.671 1.671 0 0 0-.038-.91c-.165-.531-.562-1.058-1.12-1.59-.575-.548-1.4-1.174-2.546-1.889l-1.059 1.696c1.077.672 1.781 1.218 2.226 1.641.461.439.572.682.589.734.004.014-.021-.055.009-.174a.587.587 0 0 1 .21-.316c.165-.126.291-.092.304-.088l-.525 1.93Zm-1.729-5.407a46.235 46.235 0 0 0-1.756-1.069l-1.018 1.722c.754.446 1.357.806 1.665 1.011l1.109-1.664Zm-203.578 9.267a106.84 106.84 0 0 0-18.717-1.113l.057 2c6.142-.175 12.288.19 18.367 1.091l.293-1.978Zm-18.765-1.11a69.188 69.188 0 0 0-15.307 2.93l.595 1.91a67.17 67.17 0 0 1 14.865-2.846l-.153-1.994Zm-15.306 2.93c-1.777.553-3.16.864-4.122.967-.486.052-.815.046-1.015.014-.238-.038-.11-.079.019.109.174.255.051.459.098.357.048-.104.189-.316.513-.643.637-.642 1.766-1.513 3.48-2.606l-1.076-1.686c-1.756 1.119-3.031 2.084-3.823 2.883-.39.393-.72.802-.911 1.218-.192.417-.32 1.04.07 1.608.343.502.907.67 1.316.735.447.071.973.061 1.543 0 1.147-.124 2.67-.477 4.501-1.046l-.594-1.91Zm-1.135-1.742a258.77 258.77 0 0 1 36.11-14.004l-.581-1.914a260.874 260.874 0 0 0-36.39 14.112l.86 1.806Zm36.083-13.996a8.222 8.222 0 0 1 4.777.135l.635-1.896a10.222 10.222 0 0 0-5.939-.169l.527 1.93Zm-16.587 5.659c.556-.33 1.034-.766 1.256-1.358.235-.629.107-1.234-.152-1.72-.246-.463-.632-.868-1.036-1.213-.413-.353-.9-.69-1.408-1.006-1.012-.629-2.195-1.227-3.206-1.738-1.06-.537-1.858-.943-2.248-1.23l-1.186 1.61c.561.413 1.555.911 2.532 1.405 1.027.519 2.128 1.077 3.052 1.652.461.286.856.564 1.164.827.318.271.492.485.57.633.067.124.028.123.045.079.002-.005-.048.128-.404.339l1.021 1.72Zm-6.793-8.265c-.651-.48-1.27-.947-1.718-1.358a3.375 3.375 0 0 1-.45-.48c-.104-.149.006-.068-.018.159-.037.36-.312.48-.292.472.045-.018.228-.065.65-.069.825-.008 2.212.145 4.393.556l.37-1.966c-2.206-.415-3.752-.6-4.782-.59-.503.005-.977.056-1.363.208-.414.162-.896.524-.965 1.182-.055.525.202.959.375 1.203.198.279.46.55.729.797.539.495 1.244 1.024 1.884 1.496l1.187-1.61Zm2.55-.723a173.134 173.134 0 0 0 22.4 3.054l.14-1.996a170.895 170.895 0 0 1-22.14-3.018l-.4 1.96Zm-7.583 17.461c-1.644 1.015-4.861 3.365-5.775 4.051l1.2 1.6c.918-.69 4.069-2.988 5.625-3.949l-1.05-1.702Zm-5.77 4.047c-1.082.8-1.855 1.487-2.387 2.076-.517.571-.873 1.123-1.003 1.659-.145.595-.008 1.268.581 1.66.484.321 1.05.291 1.447.155l-.646-1.892s.126-.049.306.071c.286.19.255.478.255.477.015-.06.115-.314.544-.789.413-.458 1.075-1.056 2.093-1.809l-1.19-1.608Zm-1.362 5.55c1.62-.553 3.663-1.415 5.623-2.233 1.988-.83 3.886-1.613 5.296-2.052l-.596-1.91c-1.516.473-3.509 1.297-5.47 2.116-1.99.831-3.957 1.66-5.5 2.187l.647 1.892Zm10.919-4.285c2.401-.75 5.83-1.896 9.218-2.806 3.434-.922 6.624-1.54 8.579-1.334l.21-1.99c-2.377-.25-5.912.481-9.308 1.392-3.44.924-6.947 2.096-9.295 2.828l.596 1.91Zm-1.271-1.596c-.697.697-1.124 1.16-1.395 1.398l1.317 1.506c.335-.294.897-.895 1.492-1.49l-1.414-1.414Zm-1.451 1.451c-.941.961-1.593 1.761-2.023 2.428-.418.648-.68 1.251-.719 1.803-.043.61.204 1.25.847 1.539.532.24 1.089.117 1.464-.094l-.978-1.744c.011-.007.134-.076.335.015.31.14.327.426.328.425.004-.06.06-.326.404-.861.332-.515.887-1.21 1.77-2.111l-1.428-1.4Zm-.43 5.676c1.476-.831 3.337-2.005 5.14-3.12 1.824-1.128 3.585-2.194 4.922-2.856l-.888-1.792c-1.435.71-3.276 1.827-5.087 2.947-1.832 1.134-3.639 2.274-5.067 3.077l.98 1.744Zm10.045-5.968a62.6 62.6 0 0 1 10.359-3.815l-.524-1.93a64.545 64.545 0 0 0-10.689 3.937l.854 1.808Zm91 203.721a56.808 56.808 0 0 0-2.939-13.233l-1.887.664a54.745 54.745 0 0 1 2.836 12.767l1.99-.198Zm-4.158-13.862a44.145 44.145 0 0 1-24.262 0l-.55 1.922a46.123 46.123 0 0 0 25.362 0l-.55-1.922Zm-24.815.001c-10.988 3.184-23.406 12.858-29.853 18.886l1.366 1.46c6.397-5.98 18.528-15.378 29.044-18.426l-.557-1.92Zm-29.17 20.616c21.575 0 35.894-.19 52.287-.228l-.005-2c-16.435.038-30.692.228-52.282.228v2Zm52.281-.228a5.842 5.842 0 0 0 2.41-.512l-.819-1.824a3.843 3.843 0 0 1-1.585.336l-.006 2Zm2.407-.511a5.854 5.854 0 0 0 1.989-1.449l-1.492-1.332a3.87 3.87 0 0 1-1.311.955l.814 1.826Zm1.988-1.447a5.906 5.906 0 0 0 1.222-2.133l-1.904-.61a3.881 3.881 0 0 1-.807 1.407l1.489 1.336Zm1.222-2.133c.253-.79.336-1.624.244-2.448l-1.988.222a3.881 3.881 0 0 1-.161 1.616l1.905.61Zm8.359-74.781c.059 2.532-.402 5.743-1.231 9.624-.827 3.871-2.004 8.341-3.347 13.38-2.681 10.063-6.006 22.331-8.409 36.315l1.972.338c2.385-13.88 5.685-26.063 8.37-36.138 1.34-5.03 2.531-9.549 3.37-13.478.837-3.918 1.339-7.316 1.274-10.089l-1.999.048Zm-35.827 59.64 12.352-63.81-1.963-.38-12.352 63.81 1.963.38Zm52.134-106.924-14.932 46.736 1.905.608 14.932-46.736-1.905-.608Zm-14.153 46.055a41.333 41.333 0 0 1-27.936-4.972l-1.005 1.73a43.34 43.34 0 0 0 29.288 5.212l-.347-1.97Zm-27.46-3.902 21.774-103.92-1.957-.41-21.774 103.92 1.957.41Zm137.161 44.282-7.068-3.8-.947 1.762 7.068 3.8.947-1.762Zm-8.498-3.21c-1.379 4.528-2.872 7.374-5.03 9.782-2.185 2.439-5.098 4.483-9.458 7.341l1.097 1.672c4.336-2.842 7.465-5.016 9.851-7.678 2.413-2.693 4.02-5.831 5.453-10.535l-1.913-.582Zm-14.771 18.515c2.124 3.176 2.884 5.471 3.088 7.137.202 1.654-.127 2.769-.374 3.719l1.935.504c.247-.948.677-2.396.424-4.466-.252-2.058-1.164-4.646-3.41-8.006l-1.663 1.112Zm2.996 10.38c-1.119 1.053-2.098 1.84-3.011 2.573-.907.728-1.772 1.42-2.594 2.248-1.68 1.692-3.121 3.882-4.749 8.107l1.867.72c1.564-4.059 2.876-5.983 4.301-7.417.73-.735 1.506-1.359 2.427-2.098.914-.734 1.948-1.564 3.13-2.677l-1.371-1.456Zm-9.421 14.288h16v-2h-16v2Zm15.978 0a12.292 12.292 0 0 0 6.645-1.779l-1.037-1.71a10.295 10.295 0 0 1-5.563 1.489l-.045 2Zm6.645-1.779a12.31 12.31 0 0 0 4.648-5.068l-1.793-.886a10.307 10.307 0 0 1-3.892 4.244l1.037 1.71Zm4.659-5.092c1.244-2.694 2.365-6.716 3.44-10.751 1.088-4.085 2.136-8.207 3.24-11.251l-1.88-.682c-1.143 3.15-2.219 7.39-3.293 11.418-1.087 4.079-2.166 7.922-3.323 10.428l1.816.838Zm6.674-21.985a8.908 8.908 0 0 0-.004-6.387l-1.867.718a6.91 6.91 0 0 1 .004 4.953l1.867.716Zm-.004-6.387a8.907 8.907 0 0 0-4.278-4.74l-.907 1.782a6.913 6.913 0 0 1 3.318 3.676l1.867-.718Zm-25.924 9.341-45.786-49.358-1.467 1.36 45.786 49.358 1.467-1.36Zm-27.245-63.524a110.572 110.572 0 0 1 17.21 17.738l1.582-1.224a112.491 112.491 0 0 0-17.521-18.058l-1.271 1.544Zm17.193 17.715c3.51 4.812 9.367 12.18 14.334 18.331a1435.7 1435.7 0 0 0 8.353 10.245l.532.646.139.169.036.042.009.011.002.003v.001l.771-.637.771-.637v-.001l-.003-.003-.008-.01-.036-.043a1423.28 1423.28 0 0 1-9.01-11.043c-4.97-6.154-10.797-13.486-14.274-18.252l-1.616 1.178Zm-73.305-90.161 17.48 66.686 1.935-.508-17.48-66.686-1.935.508Zm17.48 66.686a29.174 29.174 0 0 0 8.106 13.73l1.379-1.448a27.173 27.173 0 0 1-7.55-12.79l-1.935.508Zm8.106 13.73 8.71 8.292 1.379-1.448-8.71-8.292-1.379 1.448Zm9.706 8.52a42.74 42.74 0 0 0 22.984-17.791l-1.689-1.071a40.738 40.738 0 0 1-21.908 16.958l.613 1.904Zm22.995-18.844-7.864-13-1.711 1.036 7.864 13 1.711-1.036Zm-7.724-12.58-4.978-50.688-1.991.196 4.978 50.688 1.991-.196Zm-4.978-50.686c-1.856-19.168-13.32-32.625-23.906-35.56l-.535 1.928c9.574 2.653 20.65 15.232 22.45 33.824l1.991-.192ZM219.725 148.4a98.59 98.59 0 0 0-15.239 26.985l1.875.698a96.608 96.608 0 0 1 14.929-26.439l-1.565-1.244Zm-13.447 26.815c-2.465-4.059-4.936-10.467-6.804-15.926a212.888 212.888 0 0 1-2.868-9.058 113.492 113.492 0 0 1-.206-.718l-.01-.037-.003-.009-.001-.002-.963.269-.963.27.001.001v.002l.003.01.011.04.043.152a167.563 167.563 0 0 0 .8 2.708 214.348 214.348 0 0 0 2.264 7.02c1.869 5.461 4.398 12.053 6.987 16.316l1.709-1.038ZM52.369 391h302.23v-2H52.369v2ZM318.65 76.074c-15.503-2.937-30.451 6.171-33.169 20.555l1.965.37c2.482-13.132 16.242-21.724 30.831-18.96l.373-1.965Zm-33.17 20.56a24.815 24.815 0 0 0 1.863 14.846l1.817-.836a22.813 22.813 0 0 1-1.713-13.65l-1.967-.36Zm1.918 13.907-6.498 10.64 1.707 1.042 6.498-10.64-1.707-1.042Zm-5.445 12.141 12.312-2.508-.399-1.96-12.312 2.508.399 1.96Zm11.42-2.766a30.357 30.357 0 0 0 15.48 7.937l.365-1.966a28.354 28.354 0 0 1-14.46-7.415l-1.385 1.444Zm15.476 7.937c15.503 2.936 30.451-6.172 33.169-20.555l-1.965-.371c-2.482 13.132-16.242 21.724-30.832 18.961l-.372 1.965Zm33.169-20.554c2.739-14.383-7.827-28.29-23.369-31.225l-.371 1.965c14.63 2.764 24.276 15.757 21.775 28.886l1.965.374Zm-26.963-2.217c.03-1.36.494-2.379 2.612-5.197l-1.599-1.202c-2.118 2.818-2.967 4.295-3.012 6.355l1.999.044Zm2.612-5.197c2.393-3.184 3.027-6.093 2.277-8.351-.757-2.28-2.826-3.59-5.119-3.699l-.095 1.998c1.597.075 2.858.952 3.316 2.33.465 1.402.198 3.626-1.978 6.52l1.599 1.202Zm-2.845-12.05a5.736 5.736 0 0 0-2.462.436l.77 1.845a3.733 3.733 0 0 1 1.603-.283l.089-1.998Zm-2.461.435a5.741 5.741 0 0 0-2.042 1.44l1.481 1.345a3.74 3.74 0 0 1 1.33-.939l-.769-1.846Zm-2.042 1.44a5.743 5.743 0 0 0-1.238 2.174l1.913.586c.16-.524.436-1.007.806-1.415l-1.481-1.344Zm-1.238 2.174a5.755 5.755 0 0 0-.194 2.49l1.98-.28a3.746 3.746 0 0 1 .127-1.624l-1.913-.586Zm-11.516 198.348h8.208v-2h-8.208v2Zm22.76-.038h8.208v-2h-8.208v2Zm-8.276-16.466v8.208h2v-8.208h-2Zm.038 22.762v8.206h2v-8.206h-2Zm-10.704-17.493 5.814 5.776 1.409-1.418-5.814-5.776-1.409 1.418Zm16.148 16.075 5.814 5.774 1.409-1.42-5.814-5.774-1.409 1.42Zm5.773-17.529-5.814 5.814 1.415 1.414 5.814-5.814-1.415-1.414Zm-16.072 16.112-5.814 5.812 1.414 1.414 5.814-5.812-1.414-1.414ZM52.523 95.472a6.12 6.12 0 0 1-3.054-.824l-1.002 1.731a8.12 8.12 0 0 0 4.052 1.093l.004-2Zm-3.054-.824a6.12 6.12 0 0 1-2.234-2.238l-1.733 1a8.121 8.121 0 0 0 2.965 2.97l1.002-1.732Zm-2.234-2.238a6.12 6.12 0 0 1-.819-3.055h-2a8.12 8.12 0 0 0 1.086 4.054l1.733-.999Zm-.819-3.055c0-1.073.28-2.127.816-3.056l-1.733-.998a8.12 8.12 0 0 0-1.083 4.055l2-.001Zm.815-3.055 41.684-72.238-1.732-1L45.5 85.3l1.732 1Zm41.684-72.237a6.133 6.133 0 0 1 2.244-2.242l-1-1.732a8.133 8.133 0 0 0-2.975 2.972l1.73 1.002Zm2.244-2.242a6.132 6.132 0 0 1 3.064-.82V9a8.132 8.132 0 0 0-4.063 1.087l1 1.733Zm3.064-.82c1.076 0 2.133.282 3.064.82l1-1.733A8.131 8.131 0 0 0 94.223 9v2Zm3.064.82a6.131 6.131 0 0 1 2.244 2.242l1.732-1.002a8.131 8.131 0 0 0-2.976-2.973l-1 1.733Zm2.244 2.24L141.215 86.3l1.732-1-41.684-72.238-1.732 1Zm41.684 72.24c.537.929.82 1.983.82 3.056h2a8.116 8.116 0 0 0-1.088-4.057l-1.732 1Zm.82 3.057a6.113 6.113 0 0 1-.817 3.058l1.732.999a8.108 8.108 0 0 0 1.085-4.058h-2Zm-.817 3.058a6.126 6.126 0 0 1-2.237 2.24l1.002 1.731a8.12 8.12 0 0 0 2.967-2.972l-1.732-1Zm-2.237 2.24a6.117 6.117 0 0 1-3.057.822l.002 2a8.12 8.12 0 0 0 4.057-1.091l-1.002-1.731Zm-3.056.822-83.404-.006v2l83.404.006v-2Zm16.596-40.675a2.815 2.815 0 0 1-.332 1.6l1.755.958a4.808 4.808 0 0 0 .569-2.736l-1.992.178Zm-.332 1.6a2.815 2.815 0 0 1-1.165 1.145l.927 1.772a4.81 4.81 0 0 0 1.993-1.96l-1.755-.957Zm-1.165 1.145a2.816 2.816 0 0 1-1.605.305l-.214 1.988a4.814 4.814 0 0 0 2.746-.521l-.927-1.772Zm-1.605.305a2.812 2.812 0 0 1-1.504-.638l-1.282 1.534c.73.61 1.626.99 2.572 1.092l.214-1.988Zm-1.504-.639a2.816 2.816 0 0 1-.896-1.365l-1.919.563a4.816 4.816 0 0 0 1.533 2.337l1.282-1.535Zm-.896-1.366a2.815 2.815 0 0 1 .014-1.633l-1.909-.597a4.82 4.82 0 0 0-.024 2.794l1.919-.564Zm.014-1.633a2.813 2.813 0 0 1 .919-1.35l-1.255-1.558a4.814 4.814 0 0 0-1.573 2.31l1.909.598Zm.919-1.35a2.82 2.82 0 0 1 1.515-.613l-.179-1.992c-.948.085-1.85.45-2.591 1.047l1.255 1.557Zm1.512-.613a2.825 2.825 0 0 1 2.056.646l1.282-1.535a4.824 4.824 0 0 0-3.511-1.103l.173 1.992Zm2.056.646a2.825 2.825 0 0 1 1.002 1.908l1.991-.184a4.822 4.822 0 0 0-1.711-3.259l-1.282 1.535Zm-29.913 278.51v15.352h2v-15.352h-2Zm8.694 6.676h-15.388v2h15.388v-2Zm81.715-189.549a6.23 6.23 0 0 0 2.84.742l.035-2a4.232 4.232 0 0 1-1.928-.504l-.947 1.762Zm2.84.742a6.245 6.245 0 0 0 2.863-.64l-.883-1.795a4.234 4.234 0 0 1-1.945.435l-.035 2Zm2.864-.641a6.219 6.219 0 0 0 2.252-1.881l-1.609-1.188c-.398.54-.924.978-1.528 1.276l.885 1.793Zm2.251-1.88a6.214 6.214 0 0 0 1.143-2.703l-1.974-.322a4.217 4.217 0 0 1-.776 1.835l1.607 1.19Zm-.717-2.377a6.244 6.244 0 0 0 3.134 2.754l.743-1.857a4.246 4.246 0 0 1-2.13-1.871l-1.747.974Zm3.134 2.754a6.241 6.241 0 0 0 4.168.165l-.593-1.91a4.238 4.238 0 0 1-2.832-.112l-.743 1.857Zm4.168.165a6.231 6.231 0 0 0 3.342-2.496l-1.665-1.109a4.23 4.23 0 0 1-2.27 1.695l.593 1.91Zm3.341-2.495a6.247 6.247 0 0 0 1.026-4.042l-1.991.183a4.244 4.244 0 0 1-.698 2.748l1.663 1.111Zm-.553-3.139a6.237 6.237 0 0 0 3.826 1.168l-.061-2a4.23 4.23 0 0 1-2.598-.792l-1.167 1.624Zm3.826 1.168a6.227 6.227 0 0 0 3.746-1.4l-1.265-1.549a4.224 4.224 0 0 1-2.542.949l.061 2Zm3.745-1.399a6.223 6.223 0 0 0 2.125-3.389l-1.945-.463a4.229 4.229 0 0 1-1.443 2.301l1.263 1.551Zm2.125-3.389a6.222 6.222 0 0 0-.374-3.983l-1.825.818a4.22 4.22 0 0 1 .254 2.702l1.945.463Zm-1.555-2.611a6.217 6.217 0 0 0 2.867.113l-.385-1.963c-.647.127-1.311.1-1.945-.076l-.537 1.926Zm2.867.113a6.219 6.219 0 0 0 2.611-1.188l-1.227-1.58a4.201 4.201 0 0 1-1.769.805l.385 1.963Zm2.611-1.188a6.226 6.226 0 0 0 1.799-2.234l-1.805-.861a4.22 4.22 0 0 1-1.221 1.515l1.227 1.58Zm1.799-2.234a6.197 6.197 0 0 0 .603-2.806l-1.999.044a4.211 4.211 0 0 1-.409 1.901l1.805.861Zm.603-2.801a6.262 6.262 0 0 0-.528-2.41l-1.832.802c.228.52.351 1.078.361 1.642l1.999-.034Zm-.528-2.41a6.247 6.247 0 0 0-1.416-2.021l-1.379 1.448c.409.39.737.857.963 1.375l1.832-.802Zm-2.078-.297a6.204 6.204 0 0 0 4.307-1.912l-1.445-1.382a4.199 4.199 0 0 1-2.917 1.294l.055 2Zm4.307-1.912a6.197 6.197 0 0 0 1.719-4.386l-1.999.032a4.207 4.207 0 0 1-1.165 2.972l1.445 1.382Zm1.719-4.388a6.282 6.282 0 0 0-1.246-3.644l-1.603 1.197c.537.718.833 1.586.85 2.483l1.999-.036Zm-1.246-3.643a6.267 6.267 0 0 0-3.138-2.232l-.603 1.906a4.28 4.28 0 0 1 2.137 1.52l1.604-1.194Zm-3.157-.32a6.291 6.291 0 0 0 3.267-2.274l-1.604-1.195a4.293 4.293 0 0 1-2.228 1.551l.565 1.918Zm3.266-2.273a6.285 6.285 0 0 0 1.251-3.78l-2 .004a4.292 4.292 0 0 1-.853 2.579l1.602 1.197Zm1.251-3.791a6.2 6.2 0 0 0-1.767-4.254l-1.429 1.399a4.204 4.204 0 0 1 1.197 2.881l1.999-.026Zm-1.767-4.254a6.2 6.2 0 0 0-4.213-1.86l-.071 1.998c1.078.039 2.1.49 2.855 1.261l1.429-1.399Zm-3.577-.12a6.226 6.226 0 0 0 1.884-3.197l-1.947-.456a4.229 4.229 0 0 1-1.28 2.171l1.343 1.482Zm1.884-3.196a6.226 6.226 0 0 0-.265-3.703l-1.862.73c.314.801.377 1.678.18 2.514l1.947.459Zm-.264-3.701a6.222 6.222 0 0 0-2.321-2.898l-1.117 1.659a4.227 4.227 0 0 1 1.575 1.966l1.863-.727Zm-2.32-2.897a6.236 6.236 0 0 0-3.554-1.067l.021 2a4.238 4.238 0 0 1 2.414.724l1.119-1.657Zm-3.566-1.067a5.961 5.961 0 0 0-1.507.229l.551 1.922a3.951 3.951 0 0 1 1.001-.151l-.045-2Zm-.326 1.614a6.227 6.227 0 0 0 .447-3.977l-1.953.427c.198.909.09 1.858-.305 2.702l1.811.848Zm.448-3.976a6.23 6.23 0 0 0-2.061-3.43l-1.293 1.525a4.23 4.23 0 0 1 1.399 2.33l1.955-.425Zm-2.061-3.431a6.237 6.237 0 0 0-3.723-1.47l-.099 1.997c.93.046 1.819.397 2.529.999l1.293-1.526Zm-3.723-1.47a6.238 6.238 0 0 0-3.849 1.094l1.135 1.646a4.236 4.236 0 0 1 2.615-.743l.099-1.998Zm-2.288 2.027a6.232 6.232 0 0 0-.951-4.058l-1.682 1.082c.525.816.752 1.79.645 2.756l1.988.22Zm-.951-4.058a6.23 6.23 0 0 0-3.296-2.551l-.625 1.9a4.23 4.23 0 0 1 2.239 1.733l1.682-1.082Zm-3.296-2.55a6.232 6.232 0 0 0-4.167.096l.713 1.869a4.23 4.23 0 0 1 2.829-.066l.625-1.9Zm-4.167.096a6.232 6.232 0 0 0-3.173 2.7l1.731 1.003a4.228 4.228 0 0 1 2.155-1.834l-.713-1.87Zm-1.318 3.058c-.511-3.517-3.47-5.268-6.295-5.293-2.832-.025-5.812 1.681-6.361 5.247l1.977.304c.365-2.374 2.3-3.57 4.366-3.551 2.074.018 3.996 1.256 4.334 3.58l1.979-.287Zm-10.798-.389a6.238 6.238 0 0 0-3.154-2.725l-.727 1.863a4.231 4.231 0 0 1 2.142 1.852l1.739-.99Zm-3.154-2.725a6.232 6.232 0 0 0-4.164-.132l.609 1.905a4.233 4.233 0 0 1 2.828.09l.727-1.863Zm-4.163-.132a6.237 6.237 0 0 0-3.32 2.52l1.671 1.098a4.238 4.238 0 0 1 2.256-1.712l-.607-1.906Zm-3.321 2.521a6.253 6.253 0 0 0-.991 4.047l1.99-.2a4.244 4.244 0 0 1 .674-2.75l-1.673-1.097Zm.58 3.129a6.247 6.247 0 0 0-3.84-1.131l.079 1.998a4.244 4.244 0 0 1 2.61.77l1.151-1.637Zm-3.84-1.131a6.246 6.246 0 0 0-3.738 1.433l1.277 1.539a4.246 4.246 0 0 1 2.54-.974l-.079-1.998Zm-3.738 1.433a6.249 6.249 0 0 0-2.099 3.407l1.949.448a4.247 4.247 0 0 1 1.427-2.316l-1.277-1.54Zm-2.099 3.407a6.245 6.245 0 0 0 .401 3.983l1.821-.828a4.237 4.237 0 0 1-.273-2.707l-1.949-.448Zm1.574 2.604a6.239 6.239 0 0 0-4.061.271l.777 1.843a4.237 4.237 0 0 1 2.759-.184l.525-1.93Zm-4.061.271a6.238 6.238 0 0 0-3.03 2.719l1.749.971a4.235 4.235 0 0 1 2.058-1.847l-.777-1.843Zm-3.03 2.719a6.24 6.24 0 0 0-.707 4.008l1.975-.314a4.23 4.23 0 0 1 .481-2.723l-1.749-.971Zm-.707 4.008a6.235 6.235 0 0 0 1.915 3.592l1.361-1.466a4.241 4.241 0 0 1-1.301-2.44l-1.975.314Zm2.564 1.859a6.224 6.224 0 0 0-3.984 1.608l1.343 1.482a4.22 4.22 0 0 1 2.703-1.09l-.062-2Zm-3.984 1.608a6.223 6.223 0 0 0-1.992 3.807l1.984.258a4.218 4.218 0 0 1 1.351-2.583l-1.343-1.482Zm-1.992 3.807a6.229 6.229 0 0 0 .951 4.19l1.678-1.09a4.213 4.213 0 0 1-.645-2.842l-1.984-.258Zm.952 4.19a6.217 6.217 0 0 0 3.44 2.573l.571-1.916a4.223 4.223 0 0 1-2.334-1.747l-1.677 1.09Zm3.447.655a6.218 6.218 0 0 0-3.458 2.546l1.67 1.102a4.216 4.216 0 0 1 2.345-1.728l-.557-1.92Zm-3.458 2.546a6.219 6.219 0 0 0-.981 4.181l1.985-.244a4.213 4.213 0 0 1 .666-2.835l-1.67-1.102Zm-.981 4.181a6.216 6.216 0 0 0 1.963 3.819l1.353-1.472a4.22 4.22 0 0 1-1.331-2.591l-1.985.244Zm1.963 3.819a6.217 6.217 0 0 0 3.97 1.635l.076-1.998a4.221 4.221 0 0 1-2.693-1.109l-1.353 1.472Zm3.331-.099a6.221 6.221 0 0 0-1.926 3.58l1.974.32a4.232 4.232 0 0 1 1.307-2.43l-1.355-1.47Zm-1.926 3.58a6.226 6.226 0 0 0 .693 4.005l1.752-.965a4.224 4.224 0 0 1-.471-2.719l-1.974-.321Zm.693 4.005a6.23 6.23 0 0 0 3.017 2.725l.783-1.841a4.222 4.222 0 0 1-2.048-1.849l-1.752.965Zm3.017 2.725a6.228 6.228 0 0 0 4.055.283l-.519-1.932a4.226 4.226 0 0 1-2.753-.192l-.783 1.841Zm2.892-1.111a6.193 6.193 0 0 0-.575 3.192l1.993-.173a4.2 4.2 0 0 1 .389-2.163l-1.807-.856Zm-.575 3.191a6.193 6.193 0 0 0 1.116 3.046l1.632-1.155a4.204 4.204 0 0 1-.755-2.063l-1.993.172Zm1.116 3.046a6.192 6.192 0 0 0 2.5 2.065l.827-1.821a4.21 4.21 0 0 1-1.695-1.399l-1.632 1.155Zm2.501 2.066a6.207 6.207 0 0 0 3.201.52l-.207-1.99a4.2 4.2 0 0 1-2.169-.352l-.825 1.822Zm61.669 166.314-9.918-11.818-1.532 1.286 9.918 11.818 1.532-1.286Zm-64.55 3.607 4.066-14.744-1.928-.532-4.066 14.744 1.928.532Zm28.208-96.863c5.596 6.769 11.912 9.713 18.754 9.633l-.023-2c-6.15.072-11.919-2.532-17.19-8.907l-1.541 1.274ZM95.861 75.414a1.64 1.64 0 0 1-1.64 1.64v2a3.64 3.64 0 0 0 3.64-3.64h-2Zm-1.64 1.64a1.64 1.64 0 0 1-1.64-1.64h-2a3.64 3.64 0 0 0 3.64 3.64v-2Zm-1.64-1.64c0-.906.735-1.64 1.64-1.64v-2a3.64 3.64 0 0 0-3.64 3.64h2Zm1.64-1.64c.906 0 1.64.734 1.64 1.64h2a3.64 3.64 0 0 0-3.64-3.64v2Zm-1.037-35.986V63.36h2V37.788h-2Z" fill="#596A8C"/></svg>