<svg width="175" height="349" fill="none" xmlns="http://www.w3.org/2000/svg"><path d="M174.68 82.915h-1.919V30.397a30.391 30.391 0 0 0-18.778-28.083A30.443 30.443 0 0 0 142.342 0H30.989a30.431 30.431 0 0 0-21.51 8.903A30.386 30.386 0 0 0 .57 30.397V318.52a30.38 30.38 0 0 0 8.91 21.495 30.437 30.437 0 0 0 21.51 8.903h111.353a30.428 30.428 0 0 0 21.509-8.904 30.384 30.384 0 0 0 8.91-21.494V120.299h1.918l.001-37.384Z" fill="#E6E6E6"/><path d="M143.569 7.905h-14.534a10.788 10.788 0 0 1-9.994 14.858H55.249a10.799 10.799 0 0 1-8.958-4.769 10.78 10.78 0 0 1-1.035-10.089H31.68a22.725 22.725 0 0 0-16.063 6.65 22.692 22.692 0 0 0-6.654 16.05V318.31a22.692 22.692 0 0 0 6.654 16.052 22.726 22.726 0 0 0 16.063 6.649h111.889a22.725 22.725 0 0 0 16.063-6.649 22.69 22.69 0 0 0 6.654-16.052V30.605c0-6.02-2.394-11.794-6.654-16.051a22.724 22.724 0 0 0-16.063-6.649Z" fill="#fff"/><path d="M73.367 122.512a11.443 11.443 0 0 1 5.733-9.92 11.474 11.474 0 0 0-11.463-.001 11.453 11.453 0 0 0 5.732 21.375c2.012 0 3.989-.53 5.731-1.535a11.442 11.442 0 0 1-5.734-9.919Z" fill="#CCC"/><path d="M87.778 122.512a11.443 11.443 0 0 1 5.734-9.92 11.474 11.474 0 0 0-11.464-.001 11.454 11.454 0 0 0-4.197 15.648 11.454 11.454 0 0 0 4.197 4.193 11.475 11.475 0 0 0 11.464-.001 11.442 11.442 0 0 1-5.734-9.919Z" fill="#CCC"/><path d="M101.861 133.966c6.33 0 11.463-5.128 11.463-11.454 0-6.326-5.133-11.455-11.463-11.455-6.331 0-11.464 5.129-11.464 11.455 0 6.326 5.133 11.454 11.464 11.454Z" fill="#3056D3"/><path d="M121.018 158.289h-66.81a2.398 2.398 0 0 1-2.399-2.397v-66.76a2.399 2.399 0 0 1 2.4-2.398h66.809a2.404 2.404 0 0 1 2.399 2.398v66.76c0 .635-.253 1.245-.703 1.694-.45.449-1.06.702-1.696.703Zm-66.81-70.595a1.441 1.441 0 0 0-1.439 1.438v66.76a1.44 1.44 0 0 0 1.44 1.438h66.809a1.443 1.443 0 0 0 1.44-1.438v-66.76a1.442 1.442 0 0 0-1.44-1.438h-66.81ZM135.936 209.464H33.471v.959h102.465v-.959Z" fill="#CCC"/><path d="M36.707 203.477a3.234 3.234 0 1 0 0-6.467 3.234 3.234 0 1 0 0 6.467Z" fill="#3056D3"/><path d="M135.936 241.797H33.471v.96h102.465v-.96Z" fill="#CCC"/><path d="M36.707 235.811a3.234 3.234 0 1 0 0-6.467 3.234 3.234 0 1 0 0 6.467ZM134.061 278.617h-32.382a2.11 2.11 0 0 1-2.11-2.108v-11.341a2.109 2.109 0 0 1 2.11-2.108h32.382a2.11 2.11 0 0 1 2.11 2.108v11.341a2.11 2.11 0 0 1-2.11 2.108ZM47.261 203.477a3.234 3.234 0 1 0 0-6.467 3.234 3.234 0 1 0 0 6.467ZM57.817 203.477a3.234 3.234 0 1 0 0-6.467 3.234 3.234 0 1 0 0 6.467ZM47.261 235.811a3.234 3.234 0 1 0 0-6.467 3.234 3.234 0 1 0 0 6.467ZM57.817 235.811a3.234 3.234 0 1 0 0-6.467 3.234 3.234 0 1 0 0 6.467Z" fill="#3056D3"/></svg>