<svg width="66" height="186" fill="none" xmlns="http://www.w3.org/2000/svg"><path d="M7.742 65.31c.23.104.451.227.662.368l21.028-8.968.75-5.536 8.403-.051-.496 12.695-27.755 7.335a4.96 4.96 0 0 1-.21.566 4.796 4.796 0 0 1-4.544 2.756 4.8 4.8 0 0 1-4.3-3.122 4.791 4.791 0 0 1 3.709-6.398 4.801 4.801 0 0 1 2.753.354ZM41.641 180.352h-5.748l-2.734-22.154h8.483v22.154Z" fill="#FFB8B8"/><path d="M31.788 178.711h11.085v6.974H24.81a6.97 6.97 0 0 1 2.044-4.931 6.982 6.982 0 0 1 4.935-2.043Z" fill="#000"/><path d="m63.996 178.729-5.72.563-4.896-21.779 8.443-.831 2.173 22.047Z" fill="#FFB8B8"/><path d="m54.029 178.061 11.031-1.086.684 6.941-17.977 1.769a6.973 6.973 0 0 1 6.262-7.624Z" fill="#000"/><path d="M43.24 27.677c6.36 0 11.516-5.152 11.516-11.507 0-6.355-5.156-11.507-11.515-11.507-6.36 0-11.515 5.152-11.515 11.507 0 6.355 5.155 11.507 11.515 11.507Z" fill="#FFB8B8"/><path d="M34.61 175.872a2.098 2.098 0 0 1-2.07-1.733c-2.976-16.503-12.7-70.463-12.933-71.958a.665.665 0 0 1-.007-.104v-4.023c0-.147.045-.29.13-.409l1.285-1.798a.693.693 0 0 1 .536-.293c7.325-.343 31.311-1.348 32.47.098 1.164 1.454.753 5.86.659 6.728l.004.091 10.777 68.866a2.11 2.11 0 0 1-1.742 2.405l-6.73 1.108a2.117 2.117 0 0 1-2.357-1.449c-2.082-6.647-9.062-29.008-11.481-37.66a.235.235 0 0 0-.46.065c.12 8.248.413 29.292.514 36.56l.01.782a2.115 2.115 0 0 1-1.918 2.126l-6.49.589a2.178 2.178 0 0 1-.198.009Z" fill="#000"/><path d="M35.933 32.201c-2.01 1.194-3.212 3.387-3.902 5.62a53.219 53.219 0 0 0-2.29 12.724l-.73 12.93-9.027 34.28c7.825 6.615 12.338 5.112 22.87-.3 10.533-5.41 11.737 1.805 11.737 1.805l2.106-29.168 3.009-31.873a14.137 14.137 0 0 0-2.28-2.19 23.29 23.29 0 0 0-19.898-4.214l-1.595.386Z" fill="#3056D3"/><path d="M33 72.232c.244.092.479.202.705.33l20.792-10.4.345-5.633 8.577-.591.46 12.843-27.787 9.182a4.915 4.915 0 0 1-4.141 3.757 4.925 4.925 0 0 1-4.983-2.54 4.915 4.915 0 0 1 3.107-7.096 4.924 4.924 0 0 1 2.926.148Z" fill="#FFB8B8"/><path d="M59.555 38.365c5.116 1.805 6.017 21.351 6.017 21.351-6.019-3.307-13.24 2.105-13.24 2.105s-1.505-5.112-3.311-11.727a11.485 11.485 0 0 1 2.407-10.825s3.011-2.709 8.127-.904Z" fill="#3056D3"/><path d="M53.566 19.213c-1.434-1.147-3.392.938-3.392.938L49.026 9.828s-7.173.859-11.765-.286c-4.59-1.146-5.308 4.158-5.308 4.158a36.784 36.784 0 0 1-.143-6.452c.286-2.58 4.017-5.161 10.617-6.882 6.6-1.72 10.042 5.735 10.042 5.735 4.592 2.294 2.532 14.259 1.097 13.112Z" fill="#000"/></svg>